<svg xmlns="http://www.w3.org/2000/svg" viewBox="0 0 1620 510" width="486" height="153"><defs><clipPath clipPathUnits="userSpaceOnUse" id="cp1"><path d="M68 73.22C165.63 -24.41 323.92 -24.41 421.55 73.22C442.39 94.06 458.79 117.67 470.73 142.86C486.29 175.45 495 211.93 495 250.45C495 283.3 488.66 314.67 477.15 343.41C478.34 345.12 479.47 346.87 480.56 348.65C489.72 363.76 495 381.48 495 400.45C495 420.94 488.84 439.99 478.27 455.85C474.6 461.4 470.32 466.68 465.42 471.58L465.36 471.51C447.29 489.4 422.43 500.45 395 500.45C373.8 500.45 354.13 493.85 337.95 482.59C309.22 494.11 277.85 500.45 245 500.45C106.93 500.45 -5 388.52 -5 250.45C-5 181.35 23.03 118.81 68.34 73.56L68 73.22ZM395 491.45C445.26 491.45 486 450.7 486 400.45C486 350.19 445.26 309.45 395 309.45C344.74 309.45 304 350.19 304 400.45C304 450.7 344.74 491.45 395 491.45Z" /></clipPath></defs><style>tspan { white-space:pre }.shp0 { fill: #ff845e } .shp1 { fill: none;stroke: #ff845e;stroke-width: 4 } </style><path fill-rule="evenodd" class="shp0" d="M601.9 465.4C599.9 465.4 598.2 464.8 596.8 463.6C595.6 462.2 595 460.5 595 458.5L595 262.6C595 260.4 595.6 258.7 596.8 257.5C598.2 256.1 599.9 255.4 601.9 255.4L670 255.4C700.2 255.4 722 262.2 735.4 275.8C748.8 289.2 755.8 309.5 756.4 336.7C756.6 342.5 756.7 350.3 756.7 360.1C756.7 369.9 756.6 377.8 756.4 383.8C755.8 402.8 752.6 418.3 746.8 430.3C741.2 442.1 732.3 450.9 720.1 456.7C707.9 462.5 691.7 465.4 671.5 465.4L601.9 465.4ZM670 439.9C683.8 439.9 694.7 438 702.7 434.2C710.9 430.4 716.8 424.4 720.4 416.2C724.2 407.8 726.3 396.6 726.7 382.6C727.1 370.6 727.3 363.1 727.3 360.1C727.3 356.9 727.1 349.5 726.7 337.9C726.3 318.1 721.6 303.7 712.6 294.7C703.6 285.5 688.9 280.9 668.5 280.9L624.4 280.9L624.4 439.9L670 439.9Z" /><path fill-rule="evenodd" class="shp0" d="M860.34 468.4C839.74 468.4 823.24 462.1 810.84 449.5C798.64 436.7 791.94 419.3 790.74 397.3L790.44 387.1L790.74 377.2C792.14 355.6 798.94 338.4 811.14 325.6C823.54 312.8 839.84 306.4 860.04 306.4C882.24 306.4 899.44 313.5 911.64 327.7C923.84 341.7 929.94 360.7 929.94 384.7L929.94 389.8C929.94 391.8 929.24 393.5 927.84 394.9C926.64 396.1 925.04 396.7 923.04 396.7L819.24 396.7L819.24 399.4C819.84 412.4 823.74 423.5 830.94 432.7C838.34 441.7 848.04 446.2 860.04 446.2C869.24 446.2 876.74 444.4 882.54 440.8C888.54 437 892.94 433.1 895.74 429.1C897.54 426.7 898.84 425.3 899.64 424.9C900.64 424.3 902.34 424 904.74 424L919.44 424C921.24 424 922.74 424.5 923.94 425.5C925.14 426.5 925.74 427.9 925.74 429.7C925.74 434.1 922.94 439.4 917.34 445.6C911.94 451.8 904.24 457.2 894.24 461.8C884.44 466.2 873.14 468.4 860.34 468.4ZM901.44 376L901.44 375.1C901.44 361.3 897.64 350.1 890.04 341.5C882.64 332.7 872.64 328.3 860.04 328.3C847.44 328.3 837.44 332.7 830.04 341.5C822.84 350.1 819.24 361.3 819.24 375.1L819.24 376L901.44 376Z" /><path class="shp0" d="M970.31 280.3C968.31 280.3 966.61 279.7 965.21 278.5C964.01 277.1 963.41 275.4 963.41 273.4L963.41 257.2C963.41 255.2 964.01 253.5 965.21 252.1C966.61 250.7 968.31 250 970.31 250L989.21 250C991.21 250 992.91 250.7 994.31 252.1C995.71 253.5 996.41 255.2 996.41 257.2L996.41 273.4C996.41 275.4 995.71 277.1 994.31 278.5C992.91 279.7 991.21 280.3 989.21 280.3L970.31 280.3ZM972.71 465.4C970.71 465.4 969.01 464.8 967.61 463.6C966.41 462.2 965.81 460.5 965.81 458.5L965.81 316.3C965.81 314.3 966.41 312.7 967.61 311.5C969.01 310.1 970.71 309.4 972.71 309.4L987.11 309.4C989.11 309.4 990.71 310.1 991.91 311.5C993.31 312.7 994.01 314.3 994.01 316.3L994.01 458.5C994.01 460.5 993.31 462.2 991.91 463.6C990.71 464.8 989.11 465.4 987.11 465.4L972.71 465.4Z" /><path class="shp0" d="M1045.36 465.4C1043.36 465.4 1041.66 464.8 1040.26 463.6C1039.06 462.2 1038.46 460.5 1038.46 458.5L1038.46 316.3C1038.46 314.3 1039.06 312.7 1040.26 311.5C1041.66 310.1 1043.36 309.4 1045.36 309.4L1058.86 309.4C1060.86 309.4 1062.46 310.1 1063.66 311.5C1065.06 312.7 1065.76 314.3 1065.76 316.3L1065.76 326.8C1076.16 313.2 1090.66 306.4 1109.26 306.4C1131.46 306.4 1147.16 315.6 1156.36 334C1161.16 325.6 1167.96 318.9 1176.76 313.9C1185.56 308.9 1195.46 306.4 1206.46 306.4C1222.86 306.4 1236.26 312 1246.66 323.2C1257.06 334.4 1262.26 350.6 1262.26 371.8L1262.26 458.5C1262.26 460.5 1261.56 462.2 1260.16 463.6C1258.96 464.8 1257.36 465.4 1255.36 465.4L1241.26 465.4C1239.26 465.4 1237.56 464.8 1236.16 463.6C1234.96 462.2 1234.36 460.5 1234.36 458.5L1234.36 374.5C1234.36 358.9 1231.06 347.7 1224.46 340.9C1218.06 334.1 1209.56 330.7 1198.96 330.7C1189.56 330.7 1181.46 334.2 1174.66 341.2C1167.86 348 1164.46 359.1 1164.46 374.5L1164.46 458.5C1164.46 460.5 1163.76 462.2 1162.36 463.6C1161.16 464.8 1159.56 465.4 1157.56 465.4L1143.46 465.4C1141.46 465.4 1139.76 464.8 1138.36 463.6C1137.16 462.2 1136.56 460.5 1136.56 458.5L1136.56 374.5C1136.56 358.9 1133.16 347.7 1126.36 340.9C1119.76 334.1 1111.36 330.7 1101.16 330.7C1091.76 330.7 1083.66 334.2 1076.86 341.2C1070.06 348 1066.66 359 1066.66 374.2L1066.66 458.5C1066.66 460.5 1065.96 462.2 1064.56 463.6C1063.36 464.8 1061.76 465.4 1059.76 465.4L1045.36 465.4Z" /><path fill-rule="evenodd" class="shp0" d="M1368.96 468.4C1346.96 468.4 1329.86 462.2 1317.66 449.8C1305.66 437.4 1299.26 420.9 1298.46 400.3L1298.16 387.4L1298.46 374.5C1299.26 354.1 1305.76 337.7 1317.96 325.3C1330.16 312.7 1347.16 306.4 1368.96 306.4C1390.76 306.4 1407.76 312.7 1419.96 325.3C1432.16 337.7 1438.66 354.1 1439.46 374.5C1439.66 376.7 1439.76 381 1439.76 387.4C1439.76 393.8 1439.66 398.1 1439.46 400.3C1438.66 420.9 1432.16 437.4 1419.96 449.8C1407.96 462.2 1390.96 468.4 1368.96 468.4ZM1368.96 445.3C1381.56 445.3 1391.46 441.3 1398.66 433.3C1406.06 425.3 1410.06 413.8 1410.66 398.8C1410.86 396.8 1410.96 393 1410.96 387.4C1410.96 381.8 1410.86 378 1410.66 376C1410.06 361 1406.06 349.5 1398.66 341.5C1391.46 333.5 1381.56 329.5 1368.96 329.5C1356.36 329.5 1346.36 333.5 1338.96 341.5C1331.56 349.5 1327.66 361 1327.26 376L1326.96 387.4L1327.26 398.8C1327.66 413.8 1331.56 425.3 1338.96 433.3C1346.36 441.3 1356.36 445.3 1368.96 445.3Z" /><path class="shp0" d="M1531.33 468.4C1517.33 468.4 1505.53 466.2 1495.93 461.8C1486.53 457.2 1479.43 452 1474.63 446.2C1470.03 440.4 1467.73 435.6 1467.73 431.8C1467.73 429.8 1468.43 428.3 1469.83 427.3C1471.43 426.1 1473.03 425.5 1474.63 425.5L1488.13 425.5C1490.13 425.5 1491.93 426.5 1493.53 428.5C1498.33 434.1 1503.53 438.5 1509.13 441.7C1514.73 444.9 1522.23 446.5 1531.63 446.5C1542.03 446.5 1550.43 444.5 1556.83 440.5C1563.43 436.3 1566.73 430.6 1566.73 423.4C1566.73 418.6 1565.33 414.7 1562.53 411.7C1559.93 408.5 1555.33 405.8 1548.73 403.6C1542.33 401.2 1532.73 398.6 1519.93 395.8C1502.53 392 1490.13 386.5 1482.73 379.3C1475.53 372.1 1471.93 362.8 1471.93 351.4C1471.93 343.8 1474.13 336.6 1478.53 329.8C1483.13 322.8 1489.73 317.2 1498.33 313C1507.13 308.6 1517.63 306.4 1529.83 306.4C1542.63 306.4 1553.53 308.5 1562.53 312.7C1571.53 316.9 1578.23 321.9 1582.63 327.7C1587.23 333.3 1589.53 338 1589.53 341.8C1589.53 343.6 1588.83 345.1 1587.43 346.3C1586.23 347.5 1584.73 348.1 1582.93 348.1L1570.33 348.1C1567.93 348.1 1565.93 347.1 1564.33 345.1C1561.13 341.3 1558.33 338.4 1555.93 336.4C1553.73 334.2 1550.43 332.3 1546.03 330.7C1541.83 329.1 1536.43 328.3 1529.83 328.3C1520.23 328.3 1512.83 330.4 1507.63 334.6C1502.43 338.6 1499.83 343.9 1499.83 350.5C1499.83 354.7 1500.93 358.3 1503.13 361.3C1505.33 364.1 1509.53 366.7 1515.73 369.1C1522.13 371.5 1531.33 374 1543.33 376.6C1562.33 380.6 1575.73 386.4 1583.53 394C1591.53 401.4 1595.53 410.9 1595.53 422.5C1595.53 431.1 1593.03 438.9 1588.03 445.9C1583.03 452.9 1575.63 458.4 1565.83 462.4C1556.23 466.4 1544.73 468.4 1531.33 468.4Z" /><g clip-path="url(#cp1)"><g ><path class="shp1" d="M-248.77 257.54L1.54 7.23" /><path class="shp1" d="M-238.17 268.15L12.15 17.83" /><path class="shp1" d="M-227.56 278.75L22.75 28.44" /><path class="shp1" d="M-216.95 289.36L33.36 39.05" /><path class="shp1" d="M-206.35 299.97L43.97 49.65" /><path class="shp1" d="M-195.74 310.57L54.57 60.26" /><path class="shp1" d="M-185.13 321.18L65.18 70.86" /><path class="shp1" d="M-174.53 331.79L75.79 81.47" /><path class="shp1" d="M-163.92 342.39L86.39 92.08" /><path class="shp1" d="M-153.32 353L97 102.68" /><path class="shp1" d="M-142.71 363.61L107.61 113.29" /><path class="shp1" d="M-132.1 374.21L118.21 123.9" /><path class="shp1" d="M-121.5 384.82L128.82 134.5" /><path class="shp1" d="M-110.89 395.43L139.43 145.11" /><path class="shp1" d="M-100.28 406.03L150.03 155.72" /><path class="shp1" d="M-89.68 416.64L160.64 166.32" /><path class="shp1" d="M-79.07 427.25L171.25 176.93" /><path class="shp1" d="M-68.46 437.85L181.85 187.54" /><path class="shp1" d="M-57.86 448.46L192.46 198.14" /><path class="shp1" d="M-47.25 459.07L203.07 208.75" /><path class="shp1" d="M-36.64 469.67L213.67 219.36" /><path class="shp1" d="M-26.04 480.28L224.28 229.96" /><path class="shp1" d="M-15.43 490.89L234.89 240.57" /><path class="shp1" d="M-4.82 501.49L245.49 251.18" /><path class="shp1" d="M5.78 512.1L256.1 261.78" /><path class="shp1" d="M16.39 522.71L266.71 272.39" /><path class="shp1" d="M27 533.31L277.31 283" /><path class="shp1" d="M37.6 543.92L287.92 293.6" /><path class="shp1" d="M48.21 554.53L298.53 304.21" /><path class="shp1" d="M58.82 565.13L309.13 314.82" /><path class="shp1" d="M69.42 575.74L319.74 325.42" /><path class="shp1" d="M80.03 586.35L330.35 336.03" /><path class="shp1" d="M90.64 596.95L340.95 346.64" /><path class="shp1" d="M101.24 607.56L351.56 357.24" /><path class="shp1" d="M111.85 618.17L362.17 367.85" /><path class="shp1" d="M122.46 628.77L372.77 378.46" /><path class="shp1" d="M133.06 639.38L383.38 389.06" /><path class="shp1" d="M143.67 649.99L393.99 399.67" /><path class="shp1" d="M154.28 660.59L404.59 410.28" /><path class="shp1" d="M164.88 671.2L415.2 420.88" /><path class="shp1" d="M175.49 681.81L425.8 431.49" /><path class="shp1" d="M186.1 692.41L436.41 442.1" /><path class="shp1" d="M196.7 703.02L447.02 452.7" /><path class="shp1" d="M207.31 713.63L457.63 463.31" /><path class="shp1" d="M217.92 724.23L468.23 473.92" /><path class="shp1" d="M228.52 734.84L478.84 484.52" /><path class="shp1" d="M239.13 745.44L489.45 495.13" /><path fill-rule="evenodd" class="shp0" d="M80.85 73.34C175.36 -14.48 323.2 -12.4 415.19 79.59C435.29 99.69 451.09 122.44 462.6 146.72L462.61 146.74C477.6 178.14 486 213.3 486 250.45C486 282.13 479.89 312.37 468.79 340.06L466.99 344.56L469.76 348.54C480 363.26 486 381.14 486 400.45C486 419.08 480.41 436.38 470.82 450.79L470.81 450.81L470.79 450.83C468.11 454.9 465.07 458.81 461.66 462.51L459.02 465.12C442.57 481.4 419.97 491.45 395 491.45C375.69 491.45 357.82 485.44 343.1 475.21L339.12 472.43L334.61 474.24C306.92 485.34 276.68 491.45 245 491.45C111.9 491.45 4 383.55 4 250.45C4 183.84 31.01 123.56 74.69 79.93L81.07 73.56L80.85 73.34ZM68.34 73.56C68.26 73.63 68.19 73.71 68.11 73.78C22.94 119.01 -5 181.47 -5 250.45C-5 388.52 106.93 500.45 245 500.45C277.85 500.45 309.22 494.11 337.96 482.59C354.14 493.85 373.8 500.45 395 500.45C422.43 500.45 447.29 489.4 465.35 471.51L465.42 471.58C466.46 470.54 467.47 469.48 468.46 468.41C469.5 467.27 470.52 466.11 471.5 464.93M471.5 464.93C473.97 461.98 476.24 458.93 478.31 455.78C488.86 439.93 495 420.91 495 400.45C495 379.24 488.4 359.58 477.15 343.41C488.66 314.67 495 283.3 495 250.45C495 211.93 486.29 175.45 470.73 142.86C458.79 117.67 442.39 94.06 421.55 73.22C326.05 -22.28 172.51 -24.36 74.48 66.97C72.29 69.01 70.13 71.09 68 73.22" /><path fill-rule="evenodd" class="shp0" d="M295 400.45C295 345.22 339.77 300.45 395 300.45C450.23 300.45 495 345.22 495 400.45C495 455.68 450.23 500.45 395 500.45C339.77 500.45 295 455.68 295 400.45ZM395 491.45C445.26 491.45 486 450.7 486 400.45C486 350.19 445.26 309.45 395 309.45C344.74 309.45 304 350.19 304 400.45C304 450.7 344.74 491.45 395 491.45Z" /></g></g></svg>