<svg width="1620" height="607" viewBox="0 0 1620 607" fill="none" xmlns="http://www.w3.org/2000/svg">
<circle cx="250" cy="354" r="250" fill="#BD6D54"/>
<path fill-rule="evenodd" clip-rule="evenodd" d="M426.553 530.33C524.184 432.699 524.184 274.408 426.553 176.777C328.922 79.1457 170.631 79.1457 73 176.777L426.553 530.33Z" fill="#FF845E"/>
<circle cx="400" cy="504" r="100" fill="#A6A6A6"/>
<path fill-rule="evenodd" clip-rule="evenodd" d="M470.421 575.132C509.474 536.08 509.474 472.763 470.421 433.711C431.369 394.658 368.052 394.658 329 433.711L470.421 575.132Z" fill="#DDDADA"/>
<path d="M626 604C624 604 622.3 603.4 620.9 602.2C619.7 600.8 619.1 599.1 619.1 597.1V401.2C619.1 399 619.7 397.3 620.9 396.1C622.3 394.7 624 394 626 394H694.1C724.3 394 746.1 400.8 759.5 414.4C772.9 427.8 779.9 448.1 780.5 475.3C780.7 481.1 780.8 488.9 780.8 498.7C780.8 508.5 780.7 516.4 780.5 522.4C779.9 541.4 776.7 556.9 770.9 568.9C765.3 580.7 756.4 589.5 744.2 595.3C732 601.1 715.8 604 695.6 604H626ZM694.1 578.5C707.9 578.5 718.8 576.6 726.8 572.8C735 569 740.9 563 744.5 554.8C748.3 546.4 750.4 535.2 750.8 521.2C751.2 509.2 751.4 501.7 751.4 498.7C751.4 495.5 751.2 488.1 750.8 476.5C750.4 456.7 745.7 442.3 736.7 433.3C727.7 424.1 713 419.5 692.6 419.5H648.5V578.5H694.1ZM884.436 607C863.836 607 847.336 600.7 834.936 588.1C822.736 575.3 816.036 557.9 814.836 535.9L814.536 525.7L814.836 515.8C816.236 494.2 823.036 477 835.236 464.2C847.636 451.4 863.936 445 884.136 445C906.336 445 923.536 452.1 935.736 466.3C947.936 480.3 954.036 499.3 954.036 523.3V528.4C954.036 530.4 953.336 532.1 951.936 533.5C950.736 534.7 949.136 535.3 947.136 535.3H843.336V538C843.936 551 847.836 562.1 855.036 571.3C862.436 580.3 872.136 584.8 884.136 584.8C893.336 584.8 900.836 583 906.636 579.4C912.636 575.6 917.036 571.7 919.836 567.7C921.636 565.3 922.936 563.9 923.736 563.5C924.736 562.9 926.436 562.6 928.836 562.6H943.536C945.336 562.6 946.836 563.1 948.036 564.1C949.236 565.1 949.836 566.5 949.836 568.3C949.836 572.7 947.036 578 941.436 584.2C936.036 590.4 928.336 595.8 918.336 600.4C908.536 604.8 897.236 607 884.436 607ZM925.536 514.6V513.7C925.536 499.9 921.736 488.7 914.136 480.1C906.736 471.3 896.736 466.9 884.136 466.9C871.536 466.9 861.536 471.3 854.136 480.1C846.936 488.7 843.336 499.9 843.336 513.7V514.6H925.536ZM994.407 418.9C992.407 418.9 990.707 418.3 989.307 417.1C988.107 415.7 987.507 414 987.507 412V395.8C987.507 393.8 988.107 392.1 989.307 390.7C990.707 389.3 992.407 388.6 994.407 388.6H1013.31C1015.31 388.6 1017.01 389.3 1018.41 390.7C1019.81 392.1 1020.51 393.8 1020.51 395.8V412C1020.51 414 1019.81 415.7 1018.41 417.1C1017.01 418.3 1015.31 418.9 1013.31 418.9H994.407ZM996.807 604C994.807 604 993.107 603.4 991.707 602.2C990.507 600.8 989.907 599.1 989.907 597.1V454.9C989.907 452.9 990.507 451.3 991.707 450.1C993.107 448.7 994.807 448 996.807 448H1011.21C1013.21 448 1014.81 448.7 1016.01 450.1C1017.41 451.3 1018.11 452.9 1018.11 454.9V597.1C1018.11 599.1 1017.41 600.8 1016.01 602.2C1014.81 603.4 1013.21 604 1011.21 604H996.807ZM1069.46 604C1067.46 604 1065.76 603.4 1064.36 602.2C1063.16 600.8 1062.56 599.1 1062.56 597.1V454.9C1062.56 452.9 1063.16 451.3 1064.36 450.1C1065.76 448.7 1067.46 448 1069.46 448H1082.96C1084.96 448 1086.56 448.7 1087.76 450.1C1089.16 451.3 1089.86 452.9 1089.86 454.9V465.4C1100.26 451.8 1114.76 445 1133.36 445C1155.56 445 1171.26 454.2 1180.46 472.6C1185.26 464.2 1192.06 457.5 1200.86 452.5C1209.66 447.5 1219.56 445 1230.56 445C1246.96 445 1260.36 450.6 1270.76 461.8C1281.16 473 1286.36 489.2 1286.36 510.4V597.1C1286.36 599.1 1285.66 600.8 1284.26 602.2C1283.06 603.4 1281.46 604 1279.46 604H1265.36C1263.36 604 1261.66 603.4 1260.26 602.2C1259.06 600.8 1258.46 599.1 1258.46 597.1V513.1C1258.46 497.5 1255.16 486.3 1248.56 479.5C1242.16 472.7 1233.66 469.3 1223.06 469.3C1213.66 469.3 1205.56 472.8 1198.76 479.8C1191.96 486.6 1188.56 497.7 1188.56 513.1V597.1C1188.56 599.1 1187.86 600.8 1186.46 602.2C1185.26 603.4 1183.66 604 1181.66 604H1167.56C1165.56 604 1163.86 603.4 1162.46 602.2C1161.26 600.8 1160.66 599.1 1160.66 597.1V513.1C1160.66 497.5 1157.26 486.3 1150.46 479.5C1143.86 472.7 1135.46 469.3 1125.26 469.3C1115.86 469.3 1107.76 472.8 1100.96 479.8C1094.16 486.6 1090.76 497.6 1090.76 512.8V597.1C1090.76 599.1 1090.06 600.8 1088.66 602.2C1087.46 603.4 1085.86 604 1083.86 604H1069.46ZM1393.06 607C1371.06 607 1353.96 600.8 1341.76 588.4C1329.76 576 1323.36 559.5 1322.56 538.9L1322.26 526L1322.56 513.1C1323.36 492.7 1329.86 476.3 1342.06 463.9C1354.26 451.3 1371.26 445 1393.06 445C1414.86 445 1431.86 451.3 1444.06 463.9C1456.26 476.3 1462.76 492.7 1463.56 513.1C1463.76 515.3 1463.86 519.6 1463.86 526C1463.86 532.4 1463.76 536.7 1463.56 538.9C1462.76 559.5 1456.26 576 1444.06 588.4C1432.06 600.8 1415.06 607 1393.06 607ZM1393.06 583.9C1405.66 583.9 1415.56 579.9 1422.76 571.9C1430.16 563.9 1434.16 552.4 1434.76 537.4C1434.96 535.4 1435.06 531.6 1435.06 526C1435.06 520.4 1434.96 516.6 1434.76 514.6C1434.16 499.6 1430.16 488.1 1422.76 480.1C1415.56 472.1 1405.66 468.1 1393.06 468.1C1380.46 468.1 1370.46 472.1 1363.06 480.1C1355.66 488.1 1351.76 499.6 1351.36 514.6L1351.06 526L1351.36 537.4C1351.76 552.4 1355.66 563.9 1363.06 571.9C1370.46 579.9 1380.46 583.9 1393.06 583.9ZM1555.43 607C1541.43 607 1529.63 604.8 1520.03 600.4C1510.63 595.8 1503.53 590.6 1498.73 584.8C1494.13 579 1491.83 574.2 1491.83 570.4C1491.83 568.4 1492.53 566.9 1493.93 565.9C1495.53 564.7 1497.13 564.1 1498.73 564.1H1512.23C1514.23 564.1 1516.03 565.1 1517.63 567.1C1522.43 572.7 1527.63 577.1 1533.23 580.3C1538.83 583.5 1546.33 585.1 1555.73 585.1C1566.13 585.1 1574.53 583.1 1580.93 579.1C1587.53 574.9 1590.83 569.2 1590.83 562C1590.83 557.2 1589.43 553.3 1586.63 550.3C1584.03 547.1 1579.43 544.4 1572.83 542.2C1566.43 539.8 1556.83 537.2 1544.03 534.4C1526.63 530.6 1514.23 525.1 1506.83 517.9C1499.63 510.7 1496.03 501.4 1496.03 490C1496.03 482.4 1498.23 475.2 1502.63 468.4C1507.23 461.4 1513.83 455.8 1522.43 451.6C1531.23 447.2 1541.73 445 1553.93 445C1566.73 445 1577.63 447.1 1586.63 451.3C1595.63 455.5 1602.33 460.5 1606.73 466.3C1611.33 471.9 1613.63 476.6 1613.63 480.4C1613.63 482.2 1612.93 483.7 1611.53 484.9C1610.33 486.1 1608.83 486.7 1607.03 486.7H1594.43C1592.03 486.7 1590.03 485.7 1588.43 483.7C1585.23 479.9 1582.43 477 1580.03 475C1577.83 472.8 1574.53 470.9 1570.13 469.3C1565.93 467.7 1560.53 466.9 1553.93 466.9C1544.33 466.9 1536.93 469 1531.73 473.2C1526.53 477.2 1523.93 482.5 1523.93 489.1C1523.93 493.3 1525.03 496.9 1527.23 499.9C1529.43 502.7 1533.63 505.3 1539.83 507.7C1546.23 510.1 1555.43 512.6 1567.43 515.2C1586.43 519.2 1599.83 525 1607.63 532.6C1615.63 540 1619.63 549.5 1619.63 561.1C1619.63 569.7 1617.13 577.5 1612.13 584.5C1607.13 591.5 1599.73 597 1589.93 601C1580.33 605 1568.83 607 1555.43 607Z" fill="white"/>
</svg>
